HIERARCHY
ROOT Hips
{
  OFFSET 2.26061 22.2878 23.7974
  CHANNELS 6 Xposition Yposition Zposition Zrotation Xrotation Yrotation
  JOINT LeftUpLeg
  {
    OFFSET 8.64259 1.95398 -2.38835
    CHANNELS 3 Zrotation Xrotation Yrotation
    JOINT LeftLeg
    {
      OFFSET 43.7702 0 0
      CHANNELS 3 Zrotation Xrotation Yrotation
      JOINT LeftFoot
      {
        OFFSET 40.6238 0 0
        CHANNELS 3 Zrotation Xrotation Yrotation
        JOINT LeftToeBase
        {
          OFFSET 12.7242 0 0
          CHANNELS 3 Zrotation Xrotation Yrotation
          End Site
          {
            OFFSET 0 0 0
          }
        }
      }
    }
  }
  JOINT RightUpLeg
  {
    OFFSET -8.2249 1.95398 -2.59336
    CHANNELS 3 Zrotation Xrotation Yrotation
    JOINT RightLeg
    {
      OFFSET 43.5653 0 0
      CHANNELS 3 Zrotation Xrotation Yrotation
      JOINT RightFoot
      {
        OFFSET 40.6238 0 0
        CHANNELS 3 Zrotation Xrotation Yrotation
        JOINT RightToeBase
        {
          OFFSET 12.7242 0 0
          CHANNELS 3 Zrotation Xrotation Yrotation
          End Site
          {
            OFFSET 0 0 0
          }
        }
      }
    }
  }
  JOINT Spine
  {
    OFFSET 0.165834 0.87714 6.61349
    CHANNELS 3 Zrotation Xrotation Yrotation
    JOINT Spine1
    {
      OFFSET 7.38963 1.71661e-005 0
      CHANNELS 3 Zrotation Xrotation Yrotation
      JOINT Spine2
      {
        OFFSET 11.9445 1.14441e-005 0
        CHANNELS 3 Zrotation Xrotation Yrotation
        JOINT Spine3
        {
          OFFSET 14.7254 4.19617e-005 0
          CHANNELS 3 Zrotation Xrotation Yrotation
          JOINT Spine4
          {
            OFFSET 10.9679 0 0
            CHANNELS 3 Zrotation Xrotation Yrotation
            JOINT RightShoulder
            {
              OFFSET 2.46616 -1.6653 3.69651
              CHANNELS 3 Zrotation Xrotation Yrotation
              JOINT RightArm
              {
                OFFSET 13.0012 0 0
                CHANNELS 3 Zrotation Xrotation Yrotation
                JOINT RightForeArm
                {
                  OFFSET 28.7848 1.52588e-005 0
                  CHANNELS 3 Zrotation Xrotation Yrotation
                  JOINT RightHand
                  {
                    OFFSET 26.5688 1.52588e-005 0
                    CHANNELS 3 Zrotation Xrotation Yrotation
                    End Site
                    {
                      OFFSET 0 0 0
                    }
                  }
                }
              }
            }
            JOINT LeftShoulder
            {
              OFFSET 2.38034 -1.29275 -3.7523
              CHANNELS 3 Zrotation Xrotation Yrotation
              JOINT LeftArm
              {
                OFFSET 16.3182 6.10351e-005 0
                CHANNELS 3 Zrotation Xrotation Yrotation
                JOINT LeftForeArm
                {
                  OFFSET 27.0901 0 0
                  CHANNELS 3 Zrotation Xrotation Yrotation
                  JOINT LeftHand
                  {
                    OFFSET 24.5451 1.52588e-005 0
                    CHANNELS 3 Zrotation Xrotation Yrotation
                    End Site
                    {
                      OFFSET 0 0 0
                    }
                  }
                }
              }
            }
            JOINT Neck
            {
              OFFSET 5.0226 -0.0266342 0
              CHANNELS 3 Zrotation Xrotation Yrotation
              JOINT Head
              {
                OFFSET 6.69363 2.86102e-005 0
                CHANNELS 3 Zrotation Xrotation Yrotation
                End Site
                {
                  OFFSET 0 0 0
                }
              }
            }
          }
        }
      }
    }
  }
}
MOTION
Frames:	15
Frame Time:	0.0416667
-31.4443 11.6579 10.7854 1.80939 -1.61281 77.3062 -175.81 10.5944 88.8734 -25.3071 31.6873 1.16726 55.1486 -2.42332 -0.791048 72.0652 36.2708 5.51795 179.071 11.1022 90.4502 -31.0699 -18.0766 -7.70675 59.1995 -0.610731 -0.235395 55.4438 2.87849 8.9699 2.05369 6.4212 -92.6332 14.075 2.78193 -5.66057 2.39421 2.53052 -5.77705 -20.095 4.35291 -4.56598 -0.082387 4.35292 -4.566 100.78 -30.5607 -84.888 -72.2692 42.7653 86.138 -14.2756 -16.0811 -139.95 -45.2246 1.87456 -6.70249 -172.474 -51.0453 -19.5488 113.173 -24.5207 106.243 13.725 22.0434 -153.699 46.7534 3.49675 3.46886 20.4045 -24.3085 85.6651 -31.0913 -31.5468 -80.936 
-31.4547 11.6595 10.8075 1.74189 -1.60131 77.3372 -175.69 10.7169 88.9642 -25.337 31.9514 1.07105 55.1373 -2.44404 -0.559367 72.3331 36.7212 5.96699 179.078 11.1086 90.4731 -30.9789 -18.0777 -7.68254 59.0321 -0.550496 -0.193647 55.5507 2.90102 9.01954 2.04337 6.39825 -92.6379 14.1202 2.75778 -5.66915 2.43937 2.50603 -5.78455 -20.049 4.33245 -4.58144 -0.0363911 4.33245 -4.58141 100.556 -31.5141 -85.2868 -73.6269 42.2955 86.3108 -13.9429 -16.4646 -139.699 -44.7957 1.92249 -6.92447 -172.499 -51.0668 -19.5586 112.604 -24.6043 106.082 13.3418 22.5847 -153.691 46.7342 3.38526 3.22908 20.1783 -24.4229 85.8148 -31.0785 -31.4298 -81.335 
-31.4522 11.6577 10.7627 1.84197 -1.60573 77.3253 -175.741 10.6315 88.9271 -25.4039 31.705 1.12999 55.3654 -2.30128 -0.9833 71.7749 36.9208 7.29835 178.981 10.9855 90.3818 -30.9155 -18.0344 -7.62951 58.8643 -0.491629 -0.154397 55.7583 3.05341 9.72958 2.03916 6.45186 -92.6367 14.0128 2.75322 -5.66047 2.33191 2.50187 -5.77567 -20.1566 4.32549 -4.57451 -0.143972 4.32551 -4.5745 100.757 -30.8011 -84.9168 -72.1205 42.9233 85.762 -14.0963 -15.9258 -139.565 -45.8328 2.08862 -7.14675 -172.56 -51.1589 -19.5589 113.281 -24.8362 106.434 13.6666 22.1796 -153.728 47.4021 3.5242 3.41255 21.2803 -23.3634 86.2146 -32.0904 -30.7091 -81.3117 
-31.4375 11.6421 10.7051 1.87404 -1.60319 77.2998 -175.831 10.5607 88.8402 -25.397 31.6911 1.18063 55.3222 -2.3048 -0.869641 71.8247 36.0472 5.48233 178.929 11.0019 90.3172 -30.9882 -18.158 -7.62801 58.8589 -0.479131 -0.146269 55.6126 3.25366 10.99 2.0386 6.42765 -92.627 14.0613 2.75536 -5.64389 2.38054 2.50472 -5.75921 -20.1085 4.32258 -4.55802 -0.0958535 4.32259 -4.55803 100.806 -29.53 -84.88 -69.9577 42.8726 85.3743 -14.7734 -15.096 -140.038 -45.041 2.06037 -7.10401 -172.468 -51.1046 -19.5092 113.173 -24.7046 106.426 13.7136 22.1039 -153.829 46.667 3.52898 3.55471 20.489 -24.1993 85.6544 -31.3016 -31.2599 -81.2749 
-31.4339 11.6334 10.6848 1.89086 -1.44885 77.3127 -175.901 10.6407 88.8259 -25.4943 31.9871 1.23179 55.3526 -2.27925 -0.756742 72.507 37.4122 7.02485 178.83 10.9505 90.281 -30.9077 -18.1406 -7.55084 59.1154 -0.573533 -0.20998 55.3725 2.9316 9.33427 2.03385 6.42357 -92.6176 14.0693 2.75033 -5.62482 2.38863 2.50053 -5.73995 -20.1009 4.31208 -4.54132 -0.0881853 4.31207 -4.54133 100.759 -30.7866 -84.912 -72.3504 42.7083 86.1526 -14.4932 -15.9449 -139.893 -45.7786 2.17167 -7.3004 -172.345 -51.0368 -19.4385 113.645 -24.5758 106.671 13.6831 22.28 -153.753 46.6508 3.38507 3.24328 20.2671 -24.5821 85.2237 -31.0792 -31.4985 -81.0923 
-31.4632 11.6345 10.8296 1.7827 -1.95727 77.284 -175.657 10.5262 88.9601 -25.2435 31.925 1.04755 55.0471 -2.52042 -0.68454 73.6612 37.961 6.18749 179.132 11.0602 90.4764 -31.0501 -18.1278 -7.78546 59.0033 -0.532505 -0.182765 55.7106 2.96685 9.27393 2.07797 6.44328 -92.6386 14.0322 2.82855 -5.67556 2.35141 2.57647 -5.79403 -20.1385 4.40187 -4.56624 -0.125903 4.4019 -4.56625 100.461 -30.2068 -85.5526 -72.369 42.5672 86.7339 -14.7165 -15.8178 -140.022 -45.2715 2.27924 -7.57734 -172.658 -51.0535 -19.7087 113.037 -24.9426 106.42 13.3493 22.6754 -153.727 46.7062 3.35816 3.17486 20.6091 -23.9656 86.1163 -31.5089 -31.1117 -81.4071 
-31.4612 11.6451 10.8264 1.83439 -1.95573 77.2681 -175.614 10.4891 88.9759 -25.2279 32.1774 1.0125 55.0108 -2.55722 -0.556968 72.7934 36.8168 5.39314 179.162 11.0059 90.4671 -31.1063 -18.1967 -7.80108 58.9706 -0.532455 -0.182155 55.3565 2.86667 8.96309 2.08568 6.44347 -92.6393 14.0322 2.84366 -5.67882 2.35147 2.59139 -5.79796 -20.1388 4.41726 -4.56486 -0.12615 4.41727 -4.56484 100.962 -28.2334 -84.6138 -67.6773 43.2689 84.7327 -15.143 -14.5172 -140.333 -45.9719 2.19749 -7.24713 -172.663 -51.0568 -19.7116 113.679 -24.7135 106.763 13.7953 22.0694 -153.846 46.5727 3.46029 3.42163 20.4105 -24.2266 85.9753 -31.4947 -31.1037 -81.6001 
-31.4752 11.6551 10.8255 1.8809 -1.93071 77.2823 -175.555 10.4935 89.0071 -25.2882 32.2629 0.971355 55.2706 -2.37228 -0.435423 72.8268 37.3202 6.31309 179.115 10.8863 90.4437 -30.951 -18.0066 -7.73829 58.9685 -0.540144 -0.186914 55.6536 3.11285 10.155 2.09685 6.47506 -92.6405 13.9698 2.86701 -5.68113 2.28903 2.61463 -5.8013 -20.2017 4.44025 -4.56003 -0.189093 4.44023 -4.56003 100.543 -30.3929 -85.3785 -73.4953 42.5406 87.4524 -14.355 -16.5016 -139.878 -45.2424 2.23441 -7.51764 -172.587 -51.0567 -19.643 113.159 -25.1158 106.426 13.6237 22.0857 -153.764 46.6627 3.43785 3.35627 21.0713 -23.7149 85.9258 -31.9236 -30.9686 -81.0183 
-31.463 11.632 10.807 1.80757 -1.74984 77.3459 -175.669 10.5963 89.0194 -25.2962 32.4232 1.0743 54.875 -2.65649 -0.437956 74.6068 38.2754 5.26854 179.055 11.046 90.4788 -31.012 -17.8828 -7.64262 58.817 -0.469262 -0.139033 54.9695 2.91625 9.56729 2.03024 6.39638 -92.6249 14.1234 2.7379 -5.64058 2.44259 2.48743 -5.75515 -20.0461 4.30495 -4.56011 -0.0334605 4.30495 -4.56012 100.311 -28.5512 -85.967 -69.3238 42.401 86.2851 -15.2103 -15.0565 -140.481 -44.4067 1.80106 -6.49803 -172.468 -51.1372 -19.4895 113.53 -24.2567 106.699 13.5942 22.5821 -153.815 46.5685 3.45996 3.4212 18.8366 -25.6305 85.2182 -30.2203 -31.7786 -81.9157 
-31.457 11.6349 10.8313 1.82128 -1.92069 77.2854 -175.656 10.5509 88.9785 -25.3063 32.243 1.04765 55.0764 -2.49996 -0.543342 71.7077 36.1339 5.8511 179.139 10.9913 90.4764 -31.0125 -18.0389 -7.76312 58.9472 -0.522396 -0.174247 55.5782 2.92878 9.15816 2.0908 6.49134 -92.6277 13.9369 2.86225 -5.65314 2.25634 2.61109 -5.77315 -20.2351 4.42731 -4.53472 -0.222478 4.42732 -4.53474 101.02 -29.4892 -84.4387 -70.6366 43.531 85.9193 -14.5645 -15.6293 -140.127 -45.4737 1.86281 -6.61708 -172.388 -51.1136 -19.4318 113.422 -25.0618 106.49 13.6861 22.1116 -153.689 47.4109 3.3701 3.07967 21.3707 -23.4503 85.5973 -32.1857 -30.7138 -80.7141 
-31.4682 11.6271 10.8335 1.79969 -1.92952 77.2831 -175.676 10.5176 88.9681 -25.2257 32.3307 1.06188 55.0873 -2.48535 -0.388879 72.5539 36.7594 5.67404 179.114 11.0422 90.4632 -31.0024 -18.0521 -7.74865 58.8894 -0.495811 -0.158782 55.7043 3.10864 10.0784 2.06185 6.45563 -92.638 14.0065 2.79767 -5.66879 2.32572 2.5459 -5.78593 -20.1637 4.37042 -4.5691 -0.151036 4.3704 -4.56909 100.395 -29.7378 -85.7281 -71.2445 42.5786 86.4024 -14.4066 -15.8035 -140.023 -46.0729 2.25378 -7.42654 -172.699 -51.1046 -19.7154 113.682 -24.6017 106.668 13.5456 22.604 -153.717 46.9122 3.41082 3.25362 20.1663 -24.4269 85.8303 -31.2788 -31.1855 -81.6546 
-31.4492 11.6209 10.8346 1.74364 -1.90072 77.268 -175.612 10.5735 88.9905 -25.1624 32.3767 1.00004 54.7837 -2.73433 -0.543435 74.0718 38.0368 5.6702 179.165 11.0826 90.4737 -31.0668 -18.0432 -7.77964 58.9863 -0.533767 -0.182308 54.9102 2.84388 9.18992 2.07625 6.44683 -92.6504 14.0249 2.81964 -5.69763 2.34399 2.56656 -5.81572 -20.1451 4.40001 -4.59006 -0.132481 4.40001 -4.59005 102.423 -24.8587 -81.4206 -57.3135 45.3828 79.1949 -16.7613 -11.2418 -141.391 -46.4287 1.83124 -6.16079 -172.716 -51.0839 -19.743 113.132 -24.8402 106.458 13.5644 22.3571 -153.743 46.7171 3.45043 3.37409 20.1833 -24.5674 85.6444 -31.2012 -31.4058 -81.3762 
-31.4395 11.6223 10.7237 1.93844 -1.75258 77.2652 -175.785 10.5103 88.8625 -25.4005 32.2985 1.14699 55.0426 -2.54144 -0.580147 71.4725 35.8043 5.58869 178.959 10.7876 90.2875 -30.8171 -18.1549 -7.64259 59.0707 -0.588894 -0.222131 55.6212 2.95295 9.26115 2.04706 6.43604 -92.6185 14.0451 2.77675 -5.62897 2.36446 2.52673 -5.74525 -20.1255 4.33851 -4.53732 -0.112901 4.33852 -4.53733 103.755 -23.1969 -78.4444 -47.8179 46.6733 72.1527 -18.0375 -7.64745 -141.907 -45.9592 1.54572 -5.45917 -172.5 -51.0576 -19.5655 113.516 -24.3949 106.634 13.6174 22.5394 -153.76 46.965 3.40073 3.22255 19.0675 -25.5294 84.68 -29.9948 -32.0109 -81.2976 
-31.4175 11.6046 10.7379 1.83471 -1.62425 77.2654 -175.782 10.5569 88.8839 -25.1957 32.4695 1.11395 54.6046 -2.84815 -0.538046 74.7459 38.9544 6.32184 178.777 11.0306 90.2644 -30.9756 -18.1545 -7.5326 59.112 -0.548971 -0.193384 54.7411 2.94689 9.94071 2.02268 6.41431 -92.6318 14.0871 2.72065 -5.65011 2.4062 2.46977 -5.76392 -20.0818 4.29134 -4.57442 -0.069179 4.29135 -4.57443 103.215 -22.4619 -79.6568 -48.7704 46.3215 73.974 -18.2981 -7.97876 -142.048 -45.8181 1.7011 -5.77441 -172.612 -51.0939 -19.6439 113.592 -24.3118 106.804 13.6174 22.679 -153.79 47.0514 3.51446 3.45368 18.8106 -25.592 84.9795 -29.8935 -31.96 -81.6584 
-31.4582 11.6268 10.8323 1.76786 -1.96669 77.2654 -175.643 10.6456 88.9786 -25.3683 32.4511 1.02983 55.0219 -2.55774 -0.378813 71.87 36.7252 6.74741 179.134 11.0275 90.4361 -30.9795 -18.327 -7.76075 59.1071 -0.592136 -0.225312 55.5801 3.06375 9.93115 2.0863 6.48667 -92.6252 13.946 2.85424 -5.64752 2.2654 2.60336 -5.76717 -20.226 4.41801 -4.53175 -0.213342 4.41799 -4.53175 104.13 -22.0144 -77.4863 -43.9802 47.3466 69.7766 -18.4658 -6.44376 -142.083 -45.6598 1.42706 -5.17603 -172.526 -51.0837 -19.5732 113.603 -24.9763 106.604 13.5668 22.4025 -153.642 46.7279 3.36179 3.17915 20.2896 -24.4343 85.1223 -30.7548 -31.6107 -81.0031 
